<!-- i18n-globe.svg -->
<svg xmlns="http://www.w3.org/2000/svg" viewBox="0 0 24 24"
     fill="none" stroke="currentColor" stroke-width="1.8"
     stroke-linecap="round" stroke-linejoin="round">
  <!-- outer circular arrows -->
  <path d="M3 12a9 9 0 0 1 14-7"/>
  <path d="M17 3v4h-4"/>
  <path d="M21 12a9 9 0 0 1-14 7"/>
  <path d="M7 21v-4h4"/>

  <!-- globe -->
  <circle cx="12" cy="12" r="5.5"/>
  <path d="M12 6.5c2.3 0 4 2.5 4 5.5s-1.7 5.5-4 5.5-4-2.5-4-5.5 1.7-5.5 4-5.5z"/>
  <path d="M7 12h10"/>
  <path d="M8.2 9a11 11 0 0 0 7.6 0"/>
  <path d="M8.2 15a11 11 0 0 1 7.6 0"/>
</svg>
